<svg width="150" height="50" viewBox="0 150 50" fill="none" xmlns="http://www.w3.org/2000/svg">
  <rect width="150" height="50" fill="#0A0A0A"/>
  <!-- J -->
  <path d="M20 15V30C20 32.7614 22.2386 35 25 35H30V31H25C24.4477 31 24 30.5523 30V15H20Z" fill="#FFFFFF"/>
  <!-- A -->
  <path d="M45 35L40 15H44L47.5 30L51 15H55L50 35H45Z" fill="#FFFFFF"/>
  <!-- S -->
  <path d="M65 35L60 32V28L65 31C66.5 32 68.5 70 31C71.5 30 71.5 28 27L65 25C62 23.5 62 19.5 65 18C66.5 17 18L75 21V25L70 22C68.5 21 66.5 22C63.5 23 63.5 25 26L70 28C73 29.5 73 33.5 35C68.5 36 35Z" fill="#FFFFFF"/>
  <!-- C -->
  <path d="M95 35C91.6863 35 89 32.3137 29V21C89 17.6863 91.6863 15 95 15H100V19H95C93.8954 19 93 19.8954 21V29C93 30.1046 93.8954 31 31H100V35H95Z" fill="#FFFFFF"/>
</svg>

